<svg viewBox="0 0 128 128" xmlns="http://www.w3.org/2000/svg"><g fill="#8a4182"><path d="m67.17 42.93h-6.67l-1.79-2.31v-18.16h10.15v18.16z"/><path d="m58.16 44.62-2.06 6.34-2.76.99-17.26-5.6 3.13-9.65 17.27 5.61z"/><path d="m56.97 53.54 5.4 3.92.09 2.93-10.67 14.68-8.21-5.96 10.67-14.69z"/><path d="m65.24 57.49 5.4-3.91 2.81.81 10.67 14.69-8.21 5.96-10.67-14.69z"/><path d="m71.65 51.07-2.06-6.34 1.64-2.42 17.27-5.61 3.13 9.65-17.26 5.6z"/><path d="m64 6.74a44.17 44.17 0 1 0 44.17 44.17 44.17 44.17 0 0 0 -44.17-44.17zm-.24 78.69a34.93 34.93 0 1 1 34.93-34.93 34.93 34.93 0 0 1 -34.93 34.93z"/><path d="m62.29 64.31h2.76v13.77h-2.76z"/><path d="m82.89 49.74h2.76v13.77h-2.76z" transform="matrix(.30901699 -.95105652 .95105652 .30901699 4.37 119.27)"/><path d="m75.26 25.68h2.76v13.77h-2.76z" transform="matrix(-.80901699 -.58778525 .58778525 -.80901699 119.5 103.96)"/><path d="m49.93 25.68h2.76v13.77h-2.76z" transform="matrix(-.80901699 .58778525 -.58778525 -.80901699 111.97 28.75)"/><path d="m41.95 49.74h2.76v13.77h-2.76z" transform="matrix(.30901699 .95105652 -.95105652 .30901699 83.8 -2.09)"/><path d="m5.07 114.65a2.56 2.56 0 0 0 2.4 2.74 2.28 2.28 0 0 0 2.06-1.2 6 6 0 0 0 .43-2.77v-11h-2.39v-3.56h9v3.51h-2.42v11.57c0 2-.12 3.51-1.51 5.11a7 7 0 0 1 -5.14 2.22c-3.94 0-7-2.62-6.8-6.62z"/><path d="m30.49 112.52a4.94 4.94 0 0 0 -5-4.89 5 5 0 0 0 -5 5.08 5 5 0 0 0 4.89 4.89 5 5 0 0 0 5.11-5.08zm-.06 6.09a6.08 6.08 0 0 1 -5.29 2.65 8.51 8.51 0 0 1 -8.43-8.55 8.69 8.69 0 0 1 8.61-8.71 5.9 5.9 0 0 1 5.11 2.77v-2.37h5.88v3.51h-2.06v9.42h2.06v3.51h-5.88v-2.22"/><path d="m41.26 116.06a2.51 2.51 0 0 0 2.65 2.46 2.14 2.14 0 0 0 2.25-2c0-1.63-1.54-1.91-2.8-2.25-2.86-.74-6-1.63-6-5.23 0-3.14 2.65-5 5.57-5a4.38 4.38 0 0 1 3.72 1.48v-1.12h2.77v4.46h-3.63a2 2 0 0 0 -2.12-1.94 1.89 1.89 0 0 0 -2.09 1.72c0 1.54 1.51 1.88 2.71 2.15 3 .68 6.12 1.6 6.12 5.29 0 3.32-2.8 5.17-5.88 5.17a5.35 5.35 0 0 1 -4.25-1.78v1.35h-2.86v-4.77h3.85"/><path d="m53.54 107.91h-2.12v-3.51h5.58v2.46a5.45 5.45 0 0 1 4.69-2.86 5.59 5.59 0 0 1 5.11 3.45 5.9 5.9 0 0 1 5.39-3.45 6.34 6.34 0 0 1 4.74 2.09c1.29 1.51 1.29 3.14 1.29 5v6.22h2.12v3.51h-8v-3.51h2.12v-5.31a6.13 6.13 0 0 0 -.49-3 3.22 3.22 0 0 0 -2.68-1.35 3.64 3.64 0 0 0 -2.77 1.23 4.43 4.43 0 0 0 -.77 3.11v5.29h2.12v3.51h-8v-3.51h2.13v-5a6.5 6.5 0 0 0 -.49-3.08 3 3 0 0 0 -2.71-1.51 3.21 3.21 0 0 0 -2.62 1.2 4.8 4.8 0 0 0 -.89 3.35v5.08h2.12v3.51h-8v-3.51h2.12v-9.42"/><path d="m87.45 102.83h-3.75v-4h3.75zm0 14.49h2.12v3.51h-8v-3.51h2.13v-9.42h-2.13v-3.5h5.88z"/><path d="m92.84 107.91h-2.13v-3.51h5.88v2.34a5.32 5.32 0 0 1 4.86-2.71 6.51 6.51 0 0 1 4.74 2c1.35 1.51 1.38 3 1.38 4.83v6.43h2.12v3.51h-8v-3.51h2.12v-5.29a4.76 4.76 0 0 0 -.65-3 3.59 3.59 0 0 0 -2.89-1.32 3.69 3.69 0 0 0 -3 1.38 5.79 5.79 0 0 0 -.71 3.45v4.77h2.12v3.51h-8v-3.51h2.12v-9.42"/><path d="m123.82 111.14a5.25 5.25 0 0 0 -5.17-3.88 5.09 5.09 0 0 0 -4.8 3.88zm2.86 4.86a8.43 8.43 0 0 1 -7.75 5.26 8.68 8.68 0 0 1 -.09-17.36 8.8 8.8 0 0 1 6.15 2.65 8.58 8.58 0 0 1 2.31 6.15l-.12 1.32h-13.3a5.07 5.07 0 0 0 4.92 3.94 4.57 4.57 0 0 0 4-2h3.91"/></g></svg>